# MagicaVoxel @ Ephtracy

# group
o 

# material
mtllib Sword-0.mtl
usemtl palette

# normals
vn -1 0 0
vn 1 0 0
vn 0 0 1
vn 0 0 -1
vn 0 -1 0
vn 0 1 0

# texcoords
vt 0.306641 0.5
vt 0.982422 0.5
vt 0.986328 0.5

# verts
v -0.9 0.7 0.0999999
v -0.9 0.7 -0.1
v -0.9 4.3 0.0999999
v -0.9 4.3 -0.1
v -0.8 4.3 0.0999999
v -0.8 4.3 -0.1
v -0.8 4.4 0.0999999
v -0.8 4.4 -0.1
v -0.7 0.6 0.0999999
v -0.7 0.6 -0.1
v -0.7 0.7 0.0999999
v -0.7 0.7 -0.1
v -0.7 4.4 0.0999999
v -0.7 4.4 -0.1
v -0.7 4.5 0.0999999
v -0.7 4.5 -0.1
v -0.6 0.5 0.0999999
v -0.6 0.5 -0.1
v -0.6 0.6 0.0999999
v -0.6 0.6 -0.1
v -0.6 4.5 0.0999999
v -0.6 4.5 -0.1
v -0.6 4.6 0.0999999
v -0.6 4.6 -0.1
v -0.5 0.4 0.0999999
v -0.5 0.4 -0.1
v -0.5 0.5 0.0999999
v -0.5 0.5 -0.1
v -0.5 4.6 0.0999999
v -0.5 4.6 -0.1
v -0.5 4.7 0.0999999
v -0.5 4.7 -0.1
v -0.4 0.3 0.0999999
v -0.4 0.3 -0.1
v -0.4 0.4 0.0999999
v -0.4 0.4 -0.1
v -0.4 4.7 0.0999999
v -0.4 4.7 -0.1
v -0.4 4.8 0.0999999
v -0.4 4.8 -0.1
v -0.3 9.68575e-08 0.0999999
v -0.3 9.68575e-08 -5.96046e-08
v -0.3 9.68575e-08 -0.1
v -0.3 9.68575e-08 -0.2
v -0.3 0.2 -5.96046e-08
v -0.3 0.2 -0.1
v -0.3 0.2 -0.2
v -0.3 0.3 0.0999999
v -0.3 0.3 -0.1
v -0.3 4.8 0.0999999
v -0.3 4.8 -0.1
v -0.3 4.9 0.0999999
v -0.3 4.9 -0.1
v -0.2 4.9 0.0999999
v -0.2 4.9 -0.1
v -0.2 5 0.0999999
v -0.2 5 -0.1
v -0.1 2.6 0.2
v -0.1 2.6 0.0999999
v -0.1 2.6 -0.1
v -0.1 2.6 -0.2
v -0.1 5 0.2
v -0.1 5 0.0999999
v -0.1 5 -5.96046e-08
v -0.1 5 -0.1
v -0.1 5 -0.2
v -0.1 5.1 0.0999999
v -0.1 5.1 -5.96046e-08
v -0.1 5.1 -0.1
v 0 9.68575e-08 0.2
v 0 9.68575e-08 0.0999999
v 0 0.1 -0.1
v 0 0.1 -0.2
v 0 2.6 0.2
v 0 2.6 0.0999999
v 0 2.6 -0.1
v 0 2.6 -0.2
v 0 5.1 0.0999999
v 0 5.1 -5.96046e-08
v 0 5.1 -0.1
v 0 5.2 0.0999999
v 0 5.2 -5.96046e-08
v 0 5.2 -0.1
v 0.1 9.68575e-08 -5.96046e-08
v 0.1 9.68575e-08 -0.1
v 0.1 0.6 -5.96046e-08
v 0.1 0.6 -0.1
v 0.1 0.8 -5.96046e-08
v 0.1 0.8 -0.1
v 0.1 1 -5.96046e-08
v 0.1 1 -0.1
v 0.1 1.4 -5.96046e-08
v 0.1 1.4 -0.1
v 0.1 2.7 -5.96046e-08
v 0.1 2.7 -0.1
v 0.1 5.2 0.0999999
v 0.1 5.2 -5.96046e-08
v 0.1 5.2 -0.1
v 0.1 5.3 0.0999999
v 0.1 5.3 -0.1
v -0.2 9.68575e-08 -5.96046e-08
v -0.2 9.68575e-08 -0.1
v -0.2 0.1 -5.96046e-08
v -0.2 0.1 -0.1
v -0.1 0.1 -0.1
v -0.1 0.1 -0.2
v -0.1 0.2 -0.1
v -0.1 0.2 -0.2
v 0 0.1 -5.96046e-08
v 0 0.1 -0.1
v 0 0.6 -5.96046e-08
v 0 0.6 -0.1
v 0 0.8 -5.96046e-08
v 0 0.8 -0.1
v 0 1 -5.96046e-08
v 0 1 -0.1
v 0 1.4 -5.96046e-08
v 0 1.4 -0.1
v 0 2.6 -5.96046e-08
v 0 2.6 -0.1
v 0 2.7 -5.96046e-08
v 0 2.7 -0.1
v 0.1 1.1 -5.96046e-08
v 0.1 1.1 -0.1
v 0.1 1.1 -0.2
v 0.1 1.2 -5.96046e-08
v 0.1 1.3 -5.96046e-08
v 0.1 1.3 -0.1
v 0.1 1.3 -0.2
v 0.2 9.68575e-08 -5.96046e-08
v 0.2 9.68575e-08 -0.2
v 0.2 0.2 0.2
v 0.2 0.2 0.0999999
v 0.2 0.2 -5.96046e-08
v 0.2 0.3 0.2
v 0.2 0.3 0.0999999
v 0.2 0.3 -5.96046e-08
v 0.2 1 0.2
v 0.2 1 0.0999999
v 0.2 1 -5.96046e-08
v 0.2 1.1 -5.96046e-08
v 0.2 1.1 -0.2
v 0.2 1.2 0.2
v 0.2 1.2 0.0999999
v 0.2 1.2 -5.96046e-08
v 0.2 1.3 -5.96046e-08
v 0.2 1.3 -0.1
v 0.2 1.3 -0.2
v 0.2 2.2 0.2
v 0.2 2.2 0.0999999
v 0.2 2.2 -5.96046e-08
v 0.2 2.3 0.2
v 0.2 2.3 0.0999999
v 0.2 2.3 -5.96046e-08
v 0.2 2.7 0.2
v 0.2 2.7 0.0999999
v 0.2 2.7 -5.96046e-08
v 0.2 2.7 -0.1
v 0.2 2.7 -0.2
v 0.2 3.1 0.2
v 0.2 3.1 0.0999999
v 0.2 3.1 -5.96046e-08
v 0.2 3.1 -0.1
v 0.2 3.1 -0.2
v 0.2 3.5 0.2
v 0.2 3.5 0.0999999
v 0.2 3.5 -5.96046e-08
v 0.2 3.5 -0.1
v 0.2 3.5 -0.2
v 0.2 3.9 0.2
v 0.2 3.9 0.0999999
v 0.2 3.9 -5.96046e-08
v 0.2 3.9 -0.1
v 0.2 3.9 -0.2
v 0.2 4.3 0.2
v 0.2 4.3 0.0999999
v 0.2 4.3 -5.96046e-08
v 0.2 5 0.2
v 0.2 5 0.0999999
v 0.2 5 -0.1
v 0.2 5 -0.2
v 0.2 5.3 0.0999999
v 0.2 5.3 -0.1
v 0.3 9.68575e-08 0.2
v 0.3 9.68575e-08 0.0999999
v 0.3 9.68575e-08 -5.96046e-08
v 0.3 0.2 0.2
v 0.3 0.2 0.0999999
v 0.3 0.2 -5.96046e-08
v 0.3 0.3 0.2
v 0.3 0.3 0.0999999
v 0.3 0.3 -5.96046e-08
v 0.3 1 0.2
v 0.3 1 0.0999999
v 0.3 1 -5.96046e-08
v 0.3 1.2 0.2
v 0.3 1.2 0.0999999
v 0.3 1.2 -5.96046e-08
v 0.3 2.2 0.2
v 0.3 2.2 0.0999999
v 0.3 2.2 -5.96046e-08
v 0.3 2.3 0.2
v 0.3 2.3 0.0999999
v 0.3 2.3 -5.96046e-08
v 0.3 2.7 0.2
v 0.3 2.7 0.0999999
v 0.3 2.7 -5.96046e-08
v 0.3 2.7 -0.1
v 0.3 2.7 -0.2
v 0.3 3.1 0.2
v 0.3 3.1 0.0999999
v 0.3 3.1 -5.96046e-08
v 0.3 3.1 -0.1
v 0.3 3.1 -0.2
v 0.3 3.5 0.2
v 0.3 3.5 0.0999999
v 0.3 3.5 -5.96046e-08
v 0.3 3.5 -0.1
v 0.3 3.5 -0.2
v 0.3 3.9 0.2
v 0.3 3.9 0.0999999
v 0.3 3.9 -5.96046e-08
v 0.3 3.9 -0.1
v 0.3 3.9 -0.2
v 0.3 4.3 0.2
v 0.3 4.3 0.0999999
v 0.3 4.3 -5.96046e-08
v -0.1 2.6 0.2
v -0.1 5 0.2
v 0 9.68575e-08 0.2
v 0 2.6 0.2
v 0.2 0.2 0.2
v 0.2 0.3 0.2
v 0.2 1 0.2
v 0.2 1.2 0.2
v 0.2 2.2 0.2
v 0.2 2.3 0.2
v 0.2 2.7 0.2
v 0.2 3.1 0.2
v 0.2 3.5 0.2
v 0.2 3.9 0.2
v 0.2 4.3 0.2
v 0.2 5 0.2
v 0.3 9.68575e-08 0.2
v 0.3 0.2 0.2
v 0.3 0.3 0.2
v 0.3 1 0.2
v 0.3 1.2 0.2
v 0.3 2.2 0.2
v 0.3 2.3 0.2
v 0.3 2.7 0.2
v 0.3 3.1 0.2
v 0.3 3.5 0.2
v 0.3 3.9 0.2
v 0.3 4.3 0.2
v -0.9 0.7 0.0999999
v -0.9 4.3 0.0999999
v -0.8 4.3 0.0999999
v -0.8 4.4 0.0999999
v -0.7 0.6 0.0999999
v -0.7 0.7 0.0999999
v -0.7 4.4 0.0999999
v -0.7 4.5 0.0999999
v -0.6 0.5 0.0999999
v -0.6 0.6 0.0999999
v -0.6 4.5 0.0999999
v -0.6 4.6 0.0999999
v -0.5 0.4 0.0999999
v -0.5 0.5 0.0999999
v -0.5 4.6 0.0999999
v -0.5 4.7 0.0999999
v -0.4 0.3 0.0999999
v -0.4 0.4 0.0999999
v -0.4 4.7 0.0999999
v -0.4 4.8 0.0999999
v -0.3 9.68575e-08 0.0999999
v -0.3 0.3 0.0999999
v -0.3 4.8 0.0999999
v -0.3 4.9 0.0999999
v -0.2 4.9 0.0999999
v -0.2 5 0.0999999
v -0.1 2.6 0.0999999
v -0.1 5 0.0999999
v -0.1 5.1 0.0999999
v 0 9.68575e-08 0.0999999
v 0 2.6 0.0999999
v 0 5.1 0.0999999
v 0 5.2 0.0999999
v 0.1 5 0.0999999
v 0.1 5.2 0.0999999
v 0.1 5.3 0.0999999
v 0.2 5 0.0999999
v 0.2 5.3 0.0999999
v 0.2 2.7 -5.96046e-08
v 0.2 3.1 -5.96046e-08
v 0.2 3.5 -5.96046e-08
v 0.2 3.9 -5.96046e-08
v 0.3 2.7 -5.96046e-08
v 0.3 3.1 -5.96046e-08
v 0.3 3.5 -5.96046e-08
v 0.3 3.9 -5.96046e-08
v -0.2 9.68575e-08 -0.1
v -0.2 0.1 -0.1
v -0.1 0.1 -0.1
v 0 0.1 -0.1
v 0 0.6 -0.1
v 0 0.8 -0.1
v 0 1 -0.1
v 0 1.4 -0.1
v 0 2.6 -0.1
v 0 2.7 -0.1
v 0.1 9.68575e-08 -0.1
v 0.1 0.6 -0.1
v 0.1 0.8 -0.1
v 0.1 1 -0.1
v 0.1 1.4 -0.1
v 0.1 2.7 -0.1
v -0.2 9.68575e-08 -5.96046e-08
v -0.2 0.1 -5.96046e-08
v -0.1 0.1 -5.96046e-08
v 0 9.68575e-08 -5.96046e-08
v 0 0.1 -5.96046e-08
v 0 0.6 -5.96046e-08
v 0 0.8 -5.96046e-08
v 0 1 -5.96046e-08
v 0 1.4 -5.96046e-08
v 0 2.6 -5.96046e-08
v 0 2.7 -5.96046e-08
v 0.1 9.68575e-08 -5.96046e-08
v 0.1 0.6 -5.96046e-08
v 0.1 0.8 -5.96046e-08
v 0.1 1 -5.96046e-08
v 0.1 1.1 -5.96046e-08
v 0.1 1.2 -5.96046e-08
v 0.1 1.3 -5.96046e-08
v 0.1 1.4 -5.96046e-08
v 0.1 2.7 -5.96046e-08
v 0.2 9.68575e-08 -5.96046e-08
v 0.2 0.2 -5.96046e-08
v 0.2 0.3 -5.96046e-08
v 0.2 1 -5.96046e-08
v 0.2 1.1 -5.96046e-08
v 0.2 1.2 -5.96046e-08
v 0.2 1.3 -5.96046e-08
v 0.2 2.2 -5.96046e-08
v 0.2 2.3 -5.96046e-08
v 0.2 2.7 -5.96046e-08
v 0.2 3.1 -5.96046e-08
v 0.2 3.5 -5.96046e-08
v 0.2 3.9 -5.96046e-08
v 0.2 4.3 -5.96046e-08
v 0.3 9.68575e-08 -5.96046e-08
v 0.3 0.2 -5.96046e-08
v 0.3 0.3 -5.96046e-08
v 0.3 1 -5.96046e-08
v 0.3 1.2 -5.96046e-08
v 0.3 2.2 -5.96046e-08
v 0.3 2.3 -5.96046e-08
v 0.3 2.7 -5.96046e-08
v 0.3 3.1 -5.96046e-08
v 0.3 3.5 -5.96046e-08
v 0.3 3.9 -5.96046e-08
v 0.3 4.3 -5.96046e-08
v -0.9 0.7 -0.1
v -0.9 4.3 -0.1
v -0.8 4.3 -0.1
v -0.8 4.4 -0.1
v -0.7 0.6 -0.1
v -0.7 0.7 -0.1
v -0.7 4.4 -0.1
v -0.7 4.5 -0.1
v -0.6 0.5 -0.1
v -0.6 0.6 -0.1
v -0.6 4.5 -0.1
v -0.6 4.6 -0.1
v -0.5 0.4 -0.1
v -0.5 0.5 -0.1
v -0.5 4.6 -0.1
v -0.5 4.7 -0.1
v -0.4 0.3 -0.1
v -0.4 0.4 -0.1
v -0.4 4.7 -0.1
v -0.4 4.8 -0.1
v -0.3 0.2 -0.1
v -0.3 0.3 -0.1
v -0.3 4.8 -0.1
v -0.3 4.9 -0.1
v -0.2 4.9 -0.1
v -0.2 5 -0.1
v -0.1 0.1 -0.1
v -0.1 0.2 -0.1
v -0.1 2.6 -0.1
v -0.1 5 -0.1
v -0.1 5.1 -0.1
v 0 0.1 -0.1
v 0 2.6 -0.1
v 0 5.1 -0.1
v 0 5.2 -0.1
v 0.1 5.2 -0.1
v 0.1 5.3 -0.1
v 0.2 5 -0.1
v 0.2 5.3 -0.1
v -0.3 9.68575e-08 -0.2
v -0.3 0.2 -0.2
v -0.1 0.1 -0.2
v -0.1 0.2 -0.2
v -0.1 2.6 -0.2
v -0.1 5 -0.2
v 0 0.1 -0.2
v 0 2.6 -0.2
v 0.1 1.1 -0.2
v 0.1 1.3 -0.2
v 0.2 9.68575e-08 -0.2
v 0.2 1.1 -0.2
v 0.2 1.3 -0.2
v 0.2 2.7 -0.2
v 0.2 3.1 -0.2
v 0.2 3.5 -0.2
v 0.2 3.9 -0.2
v 0.2 5 -0.2
v 0.3 2.7 -0.2
v 0.3 3.1 -0.2
v 0.3 3.5 -0.2
v 0.3 3.9 -0.2
v 0 9.68575e-08 0.2
v 0.3 9.68575e-08 0.2
v -0.3 9.68575e-08 0.0999999
v 0 9.68575e-08 0.0999999
v 0.3 9.68575e-08 0.0999999
v -0.3 9.68575e-08 -5.96046e-08
v -0.2 9.68575e-08 -5.96046e-08
v 0 9.68575e-08 -5.96046e-08
v 0.1 9.68575e-08 -5.96046e-08
v 0.2 9.68575e-08 -5.96046e-08
v 0.3 9.68575e-08 -5.96046e-08
v -0.3 9.68575e-08 -0.1
v -0.2 9.68575e-08 -0.1
v 0.1 9.68575e-08 -0.1
v -0.3 9.68575e-08 -0.2
v 0.2 9.68575e-08 -0.2
v -0.2 0.1 -5.96046e-08
v -0.1 0.1 -5.96046e-08
v 0 0.1 -5.96046e-08
v -0.2 0.1 -0.1
v -0.1 0.1 -0.1
v 0 0.1 -0.1
v 0.2 0.3 0.2
v 0.3 0.3 0.2
v -0.4 0.3 0.0999999
v -0.3 0.3 0.0999999
v 0.2 0.3 0.0999999
v 0.3 0.3 0.0999999
v 0.2 0.3 -5.96046e-08
v 0.3 0.3 -5.96046e-08
v -0.4 0.3 -0.1
v -0.3 0.3 -0.1
v -0.5 0.4 0.0999999
v -0.4 0.4 0.0999999
v -0.5 0.4 -0.1
v -0.4 0.4 -0.1
v -0.6 0.5 0.0999999
v -0.5 0.5 0.0999999
v -0.6 0.5 -0.1
v -0.5 0.5 -0.1
v -0.7 0.6 0.0999999
v -0.6 0.6 0.0999999
v 0 0.6 -5.96046e-08
v 0.1 0.6 -5.96046e-08
v -0.7 0.6 -0.1
v -0.6 0.6 -0.1
v 0 0.6 -0.1
v 0.1 0.6 -0.1
v -0.9 0.7 0.0999999
v -0.7 0.7 0.0999999
v -0.9 0.7 -0.1
v -0.7 0.7 -0.1
v 0 1 -5.96046e-08
v 0.1 1 -5.96046e-08
v 0 1 -0.1
v 0.1 1 -0.1
v 0.2 1.2 0.2
v 0.3 1.2 0.2
v 0.2 1.2 0.0999999
v 0.3 1.2 0.0999999
v 0.2 1.2 -5.96046e-08
v 0.3 1.2 -5.96046e-08
v 0.1 1.3 -5.96046e-08
v 0.2 1.3 -5.96046e-08
v 0.1 1.3 -0.1
v 0.2 1.3 -0.1
v 0.1 1.3 -0.2
v 0.2 1.3 -0.2
v 0.2 2.3 0.2
v 0.3 2.3 0.2
v 0.2 2.3 0.0999999
v 0.3 2.3 0.0999999
v 0.2 2.3 -5.96046e-08
v 0.3 2.3 -5.96046e-08
v -0.1 2.6 0.2
v 0 2.6 0.2
v -0.1 2.6 0.0999999
v 0 2.6 0.0999999
v -0.1 2.6 -0.1
v 0 2.6 -0.1
v -0.1 2.6 -0.2
v 0 2.6 -0.2
v 0 2.7 -5.96046e-08
v 0.1 2.7 -5.96046e-08
v 0.2 2.7 -5.96046e-08
v 0.3 2.7 -5.96046e-08
v 0 2.7 -0.1
v 0.1 2.7 -0.1
v 0.2 2.7 -0.1
v 0.3 2.7 -0.1
v 0.2 2.7 -0.2
v 0.3 2.7 -0.2
v 0.2 3.1 0.2
v 0.3 3.1 0.2
v 0.2 3.1 0.0999999
v 0.3 3.1 0.0999999
v 0.2 3.1 -5.96046e-08
v 0.3 3.1 -5.96046e-08
v 0.2 3.5 -5.96046e-08
v 0.3 3.5 -5.96046e-08
v 0.2 3.5 -0.1
v 0.3 3.5 -0.1
v 0.2 3.5 -0.2
v 0.3 3.5 -0.2
v 0.2 3.9 0.2
v 0.3 3.9 0.2
v 0.2 3.9 0.0999999
v 0.3 3.9 0.0999999
v 0.2 3.9 -5.96046e-08
v 0.3 3.9 -5.96046e-08
v -0.1 0.1 -0.1
v 0 0.1 -0.1
v -0.1 0.1 -0.2
v 0 0.1 -0.2
v 0.2 0.2 0.2
v 0.3 0.2 0.2
v 0.2 0.2 0.0999999
v 0.3 0.2 0.0999999
v 0.2 0.2 -5.96046e-08
v 0.3 0.2 -5.96046e-08
v -0.3 0.2 -0.1
v -0.1 0.2 -0.1
v -0.3 0.2 -0.2
v -0.1 0.2 -0.2
v 0 0.8 -5.96046e-08
v 0.1 0.8 -5.96046e-08
v 0 0.8 -0.1
v 0.1 0.8 -0.1
v 0.2 1 0.2
v 0.3 1 0.2
v 0.2 1 0.0999999
v 0.3 1 0.0999999
v 0.2 1 -5.96046e-08
v 0.3 1 -5.96046e-08
v 0.1 1.1 -5.96046e-08
v 0.2 1.1 -5.96046e-08
v 0.1 1.1 -0.1
v 0.1 1.1 -0.2
v 0.2 1.1 -0.2
v 0 1.4 -5.96046e-08
v 0.1 1.4 -5.96046e-08
v 0 1.4 -0.1
v 0.1 1.4 -0.1
v 0.2 2.2 0.2
v 0.3 2.2 0.2
v 0.2 2.2 0.0999999
v 0.3 2.2 0.0999999
v 0.2 2.2 -5.96046e-08
v 0.3 2.2 -5.96046e-08
v 0.2 2.7 0.2
v 0.3 2.7 0.2
v 0.2 2.7 0.0999999
v 0.3 2.7 0.0999999
v 0.2 2.7 -5.96046e-08
v 0.3 2.7 -5.96046e-08
v 0.2 3.1 -5.96046e-08
v 0.3 3.1 -5.96046e-08
v 0.2 3.1 -0.1
v 0.3 3.1 -0.1
v 0.2 3.1 -0.2
v 0.3 3.1 -0.2
v 0.2 3.5 0.2
v 0.3 3.5 0.2
v 0.2 3.5 0.0999999
v 0.3 3.5 0.0999999
v 0.2 3.5 -5.96046e-08
v 0.3 3.5 -5.96046e-08
v 0.2 3.9 -5.96046e-08
v 0.3 3.9 -5.96046e-08
v 0.2 3.9 -0.1
v 0.3 3.9 -0.1
v 0.2 3.9 -0.2
v 0.3 3.9 -0.2
v 0.2 4.3 0.2
v 0.3 4.3 0.2
v -0.9 4.3 0.0999999
v -0.8 4.3 0.0999999
v 0.2 4.3 0.0999999
v 0.3 4.3 0.0999999
v 0.2 4.3 -5.96046e-08
v 0.3 4.3 -5.96046e-08
v -0.9 4.3 -0.1
v -0.8 4.3 -0.1
v -0.8 4.4 0.0999999
v -0.7 4.4 0.0999999
v -0.8 4.4 -0.1
v -0.7 4.4 -0.1
v -0.7 4.5 0.0999999
v -0.6 4.5 0.0999999
v -0.7 4.5 -0.1
v -0.6 4.5 -0.1
v -0.6 4.6 0.0999999
v -0.5 4.6 0.0999999
v -0.6 4.6 -0.1
v -0.5 4.6 -0.1
v -0.5 4.7 0.0999999
v -0.4 4.7 0.0999999
v -0.5 4.7 -0.1
v -0.4 4.7 -0.1
v -0.4 4.8 0.0999999
v -0.3 4.8 0.0999999
v -0.4 4.8 -0.1
v -0.3 4.8 -0.1
v -0.3 4.9 0.0999999
v -0.2 4.9 0.0999999
v -0.3 4.9 -0.1
v -0.2 4.9 -0.1
v -0.1 5 0.2
v 0.2 5 0.2
v -0.2 5 0.0999999
v -0.1 5 0.0999999
v 0.1 5 0.0999999
v 0.2 5 0.0999999
v -0.1 5 -5.96046e-08
v -0.2 5 -0.1
v -0.1 5 -0.1
v 0.2 5 -0.1
v -0.1 5 -0.2
v 0.2 5 -0.2
v -0.1 5.1 0.0999999
v 0 5.1 0.0999999
v -0.1 5.1 -5.96046e-08
v 0 5.1 -5.96046e-08
v -0.1 5.1 -0.1
v 0 5.1 -0.1
v 0 5.2 0.0999999
v 0.1 5.2 0.0999999
v 0 5.2 -5.96046e-08
v 0.1 5.2 -5.96046e-08
v 0 5.2 -0.1
v 0.1 5.2 -0.1
v 0.1 5.3 0.0999999
v 0.2 5.3 0.0999999
v 0.1 5.3 -0.1
v 0.2 5.3 -0.1

# faces
f 3/2/1 2/2/1 1/2/1
f 4/2/1 2/2/1 3/2/1
f 7/2/1 6/2/1 5/2/1
f 8/2/1 6/2/1 7/2/1
f 11/2/1 10/2/1 9/2/1
f 12/2/1 10/2/1 11/2/1
f 15/2/1 14/2/1 13/2/1
f 16/2/1 14/2/1 15/2/1
f 19/2/1 18/2/1 17/2/1
f 20/2/1 18/2/1 19/2/1
f 23/2/1 22/2/1 21/2/1
f 24/2/1 22/2/1 23/2/1
f 27/2/1 26/2/1 25/2/1
f 28/2/1 26/2/1 27/2/1
f 31/2/1 30/2/1 29/2/1
f 32/2/1 30/2/1 31/2/1
f 35/2/1 34/2/1 33/2/1
f 36/2/1 34/2/1 35/2/1
f 39/2/1 38/2/1 37/2/1
f 40/2/1 38/2/1 39/2/1
f 45/2/1 42/2/1 41/2/1
f 45/1/1 43/1/1 42/1/1
f 46/3/1 44/3/1 43/3/1
f 46/1/1 43/1/1 45/1/1
f 47/3/1 44/3/1 46/3/1
f 48/2/1 45/2/1 41/2/1
f 48/2/1 46/2/1 45/2/1
f 49/2/1 46/2/1 48/2/1
f 52/2/1 51/2/1 50/2/1
f 53/2/1 51/2/1 52/2/1
f 56/2/1 55/2/1 54/2/1
f 57/2/1 55/2/1 56/2/1
f 62/3/1 59/3/1 58/3/1
f 63/3/1 59/3/1 62/3/1
f 65/3/1 61/3/1 60/3/1
f 66/3/1 61/3/1 65/3/1
f 67/2/1 64/2/1 63/2/1
f 68/1/1 65/1/1 64/1/1
f 68/2/1 64/2/1 67/2/1
f 69/1/1 65/1/1 68/1/1
f 74/3/1 71/3/1 70/3/1
f 75/3/1 71/3/1 74/3/1
f 76/3/1 73/3/1 72/3/1
f 77/3/1 73/3/1 76/3/1
f 81/2/1 79/2/1 78/2/1
f 82/1/1 80/1/1 79/1/1
f 82/2/1 79/2/1 81/2/1
f 83/1/1 80/1/1 82/1/1
f 86/3/1 85/3/1 84/3/1
f 87/3/1 85/3/1 86/3/1
f 90/3/1 89/3/1 88/3/1
f 91/3/1 89/3/1 90/3/1
f 94/1/1 93/1/1 92/1/1
f 95/1/1 93/1/1 94/1/1
f 99/1/1 97/1/1 96/1/1
f 99/1/1 98/1/1 97/1/1
f 100/1/1 98/1/1 99/1/1
f 101/1/2 102/1/2 103/1/2
f 103/1/2 102/1/2 104/1/2
f 105/3/2 106/3/2 107/3/2
f 107/3/2 106/3/2 108/3/2
f 109/2/2 110/2/2 111/2/2
f 111/2/2 110/2/2 112/2/2
f 113/2/2 114/2/2 115/2/2
f 115/2/2 114/2/2 116/2/2
f 117/2/2 118/2/2 119/2/2
f 119/2/2 118/2/2 120/2/2
f 119/1/2 120/1/2 121/1/2
f 121/1/2 120/1/2 122/1/2
f 123/1/2 124/1/2 126/1/2
f 126/1/2 124/1/2 127/1/2
f 124/3/2 125/3/2 128/3/2
f 127/1/2 124/1/2 128/1/2
f 128/3/2 125/3/2 129/3/2
f 130/3/2 131/3/2 134/3/2
f 132/3/2 133/3/2 135/3/2
f 133/3/2 134/3/2 135/3/2
f 135/3/2 134/3/2 136/3/2
f 134/3/2 131/3/2 137/3/2
f 136/3/2 134/3/2 137/3/2
f 137/3/2 131/3/2 140/3/2
f 138/3/2 139/3/2 141/3/2
f 139/3/2 140/3/2 141/3/2
f 140/3/2 131/3/2 141/3/2
f 141/3/2 131/3/2 142/3/2
f 138/3/2 141/3/2 143/3/2
f 143/3/2 141/3/2 144/3/2
f 144/3/2 141/3/2 145/3/2
f 146/1/2 147/1/2 151/1/2
f 149/3/2 150/3/2 152/3/2
f 150/1/2 151/1/2 153/1/2
f 152/3/2 150/3/2 153/3/2
f 151/1/2 147/1/2 154/1/2
f 153/1/2 151/1/2 154/1/2
f 154/1/2 147/1/2 157/1/2
f 147/3/2 148/3/2 158/3/2
f 157/1/2 147/1/2 158/1/2
f 158/3/2 148/3/2 159/3/2
f 155/3/2 156/3/2 160/3/2
f 156/1/2 157/1/2 161/1/2
f 160/3/2 156/3/2 161/3/2
f 161/1/2 157/1/2 162/1/2
f 162/1/2 163/1/2 167/1/2
f 163/3/2 164/3/2 168/3/2
f 167/1/2 163/1/2 168/1/2
f 168/3/2 164/3/2 169/3/2
f 165/3/2 166/3/2 170/3/2
f 166/1/2 167/1/2 171/1/2
f 170/3/2 166/3/2 171/3/2
f 171/1/2 167/1/2 172/1/2
f 172/1/2 173/1/2 177/1/2
f 175/3/2 176/3/2 178/3/2
f 176/1/2 177/1/2 179/1/2
f 178/3/2 176/3/2 179/3/2
f 173/3/2 174/3/2 180/3/2
f 179/1/2 177/1/2 180/1/2
f 177/1/2 173/1/2 180/1/2
f 180/3/2 174/3/2 181/3/2
f 179/1/2 180/1/2 182/1/2
f 182/1/2 180/1/2 183/1/2
f 184/3/2 185/3/2 187/3/2
f 185/1/2 186/1/2 188/1/2
f 187/3/2 185/3/2 188/3/2
f 188/1/2 186/1/2 189/1/2
f 190/3/2 191/3/2 193/3/2
f 191/1/2 192/1/2 194/1/2
f 193/3/2 191/3/2 194/3/2
f 194/1/2 192/1/2 195/1/2
f 196/3/2 197/3/2 199/3/2
f 197/1/2 198/1/2 200/1/2
f 199/3/2 197/3/2 200/3/2
f 200/1/2 198/1/2 201/1/2
f 202/3/2 203/3/2 205/3/2
f 203/1/2 204/1/2 206/1/2
f 205/3/2 203/3/2 206/3/2
f 206/1/2 204/1/2 207/1/2
f 207/1/2 208/1/2 212/1/2
f 208/3/2 209/3/2 213/3/2
f 212/1/2 208/1/2 213/1/2
f 213/3/2 209/3/2 214/3/2
f 210/3/2 211/3/2 215/3/2
f 211/1/2 212/1/2 216/1/2
f 215/3/2 211/3/2 216/3/2
f 216/1/2 212/1/2 217/1/2
f 217/1/2 218/1/2 222/1/2
f 218/3/2 219/3/2 223/3/2
f 222/1/2 218/1/2 223/1/2
f 223/3/2 219/3/2 224/3/2
f 220/3/2 221/3/2 225/3/2
f 221/1/2 222/1/2 226/1/2
f 225/3/2 221/3/2 226/3/2
f 226/1/2 222/1/2 227/1/2
f 231/3/3 229/3/3 228/3/3
f 232/3/3 231/3/3 230/3/3
f 233/3/3 231/3/3 232/3/3
f 234/3/3 231/3/3 233/3/3
f 235/3/3 231/3/3 234/3/3
f 236/3/3 231/3/3 235/3/3
f 237/3/3 231/3/3 236/3/3
f 238/3/3 229/3/3 231/3/3
f 238/3/3 231/3/3 237/3/3
f 239/3/3 229/3/3 238/3/3
f 240/3/3 229/3/3 239/3/3
f 241/3/3 229/3/3 240/3/3
f 242/3/3 229/3/3 241/3/3
f 243/3/3 229/3/3 242/3/3
f 244/3/3 232/3/3 230/3/3
f 245/3/3 232/3/3 244/3/3
f 246/3/3 234/3/3 233/3/3
f 247/3/3 234/3/3 246/3/3
f 248/3/3 236/3/3 235/3/3
f 249/3/3 236/3/3 248/3/3
f 250/3/3 238/3/3 237/3/3
f 251/3/3 238/3/3 250/3/3
f 252/3/3 240/3/3 239/3/3
f 253/3/3 240/3/3 252/3/3
f 254/3/3 242/3/3 241/3/3
f 255/3/3 242/3/3 254/3/3
f 258/2/3 257/2/3 256/2/3
f 261/2/3 258/2/3 256/2/3
f 261/2/3 259/2/3 258/2/3
f 262/2/3 259/2/3 261/2/3
f 265/2/3 261/2/3 260/2/3
f 265/2/3 263/2/3 262/2/3
f 265/2/3 262/2/3 261/2/3
f 266/2/3 263/2/3 265/2/3
f 269/2/3 265/2/3 264/2/3
f 269/2/3 267/2/3 266/2/3
f 269/2/3 266/2/3 265/2/3
f 270/2/3 267/2/3 269/2/3
f 273/2/3 269/2/3 268/2/3
f 273/2/3 271/2/3 270/2/3
f 273/2/3 270/2/3 269/2/3
f 274/2/3 271/2/3 273/2/3
f 277/2/3 273/2/3 272/2/3
f 277/2/3 275/2/3 274/2/3
f 277/2/3 274/2/3 273/2/3
f 278/2/3 275/2/3 277/2/3
f 280/2/3 277/2/3 276/2/3
f 280/2/3 279/2/3 278/2/3
f 280/2/3 278/2/3 277/2/3
f 282/2/3 280/2/3 276/2/3
f 282/2/3 281/2/3 280/2/3
f 283/2/3 281/2/3 282/2/3
f 285/2/3 282/2/3 276/2/3
f 286/2/3 282/2/3 285/2/3
f 287/2/3 284/2/3 283/2/3
f 289/2/3 288/2/3 287/2/3
f 289/2/3 287/2/3 283/2/3
f 290/2/3 288/2/3 289/2/3
f 292/1/3 290/1/3 289/1/3
f 292/1/3 291/1/3 290/1/3
f 293/1/3 291/1/3 292/1/3
f 298/1/3 295/1/3 294/1/3
f 299/1/3 295/1/3 298/1/3
f 300/1/3 297/1/3 296/1/3
f 301/1/3 297/1/3 300/1/3
f 304/3/3 303/3/3 302/3/3
f 305/3/3 304/3/3 302/3/3
f 312/3/3 305/3/3 302/3/3
f 312/3/3 306/3/3 305/3/3
f 313/3/3 306/3/3 312/3/3
f 314/3/3 308/3/3 307/3/3
f 315/3/3 308/3/3 314/3/3
f 316/3/3 311/3/3 310/3/3
f 316/3/3 310/3/3 309/3/3
f 317/3/3 311/3/3 316/3/3
f 318/2/4 319/2/4 320/2/4
f 318/2/4 320/2/4 321/2/4
f 321/2/4 320/2/4 322/2/4
f 321/1/4 322/1/4 329/1/4
f 322/1/4 323/1/4 329/1/4
f 329/1/4 323/1/4 330/1/4
f 324/1/4 325/1/4 331/1/4
f 331/1/4 325/1/4 332/1/4
f 327/1/4 328/1/4 336/1/4
f 326/1/4 327/1/4 336/1/4
f 336/1/4 328/1/4 337/1/4
f 333/3/4 334/3/4 342/3/4
f 334/1/4 335/1/4 343/1/4
f 342/3/4 334/3/4 343/3/4
f 343/1/4 335/1/4 344/1/4
f 338/1/4 339/1/4 352/1/4
f 352/1/4 339/1/4 353/1/4
f 340/1/4 341/1/4 354/1/4
f 354/1/4 341/1/4 355/1/4
f 343/1/4 344/1/4 356/1/4
f 344/1/4 345/1/4 356/1/4
f 356/1/4 345/1/4 357/1/4
f 346/1/4 347/1/4 358/1/4
f 358/1/4 347/1/4 359/1/4
f 348/1/4 349/1/4 360/1/4
f 360/1/4 349/1/4 361/1/4
f 350/1/4 351/1/4 362/1/4
f 362/1/4 351/1/4 363/1/4
f 364/2/4 365/2/4 366/2/4
f 364/2/4 366/2/4 369/2/4
f 366/2/4 367/2/4 369/2/4
f 369/2/4 367/2/4 370/2/4
f 368/2/4 369/2/4 373/2/4
f 370/2/4 371/2/4 373/2/4
f 369/2/4 370/2/4 373/2/4
f 373/2/4 371/2/4 374/2/4
f 372/2/4 373/2/4 377/2/4
f 374/2/4 375/2/4 377/2/4
f 373/2/4 374/2/4 377/2/4
f 377/2/4 375/2/4 378/2/4
f 376/2/4 377/2/4 381/2/4
f 378/2/4 379/2/4 381/2/4
f 377/2/4 378/2/4 381/2/4
f 381/2/4 379/2/4 382/2/4
f 380/2/4 381/2/4 385/2/4
f 382/2/4 383/2/4 385/2/4
f 381/2/4 382/2/4 385/2/4
f 385/2/4 383/2/4 386/2/4
f 384/2/4 385/2/4 388/2/4
f 386/2/4 387/2/4 388/2/4
f 385/2/4 386/2/4 388/2/4
f 384/2/4 388/2/4 391/2/4
f 388/2/4 389/2/4 391/2/4
f 391/2/4 389/2/4 392/2/4
f 392/2/4 389/2/4 393/2/4
f 390/2/4 391/2/4 395/2/4
f 391/2/4 392/2/4 395/2/4
f 395/2/4 392/2/4 396/2/4
f 393/1/4 394/1/4 397/1/4
f 397/1/4 398/1/4 399/1/4
f 393/1/4 397/1/4 401/1/4
f 399/1/4 400/1/4 401/1/4
f 397/1/4 399/1/4 401/1/4
f 401/1/4 400/1/4 402/1/4
f 403/3/4 404/3/4 405/3/4
f 405/3/4 404/3/4 406/3/4
f 403/3/4 405/3/4 409/3/4
f 407/3/4 408/3/4 410/3/4
f 409/3/4 410/3/4 411/3/4
f 411/3/4 410/3/4 412/3/4
f 403/3/4 409/3/4 413/3/4
f 409/3/4 411/3/4 413/3/4
f 413/3/4 411/3/4 414/3/4
f 412/3/4 410/3/4 415/3/4
f 410/3/4 408/3/4 416/3/4
f 415/3/4 410/3/4 416/3/4
f 416/3/4 408/3/4 417/3/4
f 417/3/4 408/3/4 418/3/4
f 418/3/4 408/3/4 419/3/4
f 419/3/4 408/3/4 420/3/4
f 416/3/4 417/3/4 421/3/4
f 421/3/4 417/3/4 422/3/4
f 418/3/4 419/3/4 423/3/4
f 423/3/4 419/3/4 424/3/4
f 428/3/5 426/3/5 425/3/5
f 429/3/5 426/3/5 428/3/5
f 430/2/5 428/2/5 427/2/5
f 431/2/5 428/2/5 430/2/5
f 432/1/5 429/1/5 428/1/5
f 432/2/5 428/2/5 431/2/5
f 433/1/5 429/1/5 432/1/5
f 434/1/5 429/1/5 433/1/5
f 435/1/5 429/1/5 434/1/5
f 436/1/5 431/1/5 430/1/5
f 437/1/5 431/1/5 436/1/5
f 438/3/5 434/3/5 433/3/5
f 439/3/5 437/3/5 436/3/5
f 439/3/5 438/3/5 437/3/5
f 440/3/5 434/3/5 438/3/5
f 440/3/5 438/3/5 439/3/5
f 444/1/5 442/1/5 441/1/5
f 445/2/5 443/2/5 442/2/5
f 445/1/5 442/1/5 444/1/5
f 446/2/5 443/2/5 445/2/5
f 451/3/5 448/3/5 447/3/5
f 452/3/5 448/3/5 451/3/5
f 453/1/5 452/1/5 451/1/5
f 454/1/5 452/1/5 453/1/5
f 455/2/5 450/2/5 449/2/5
f 456/2/5 450/2/5 455/2/5
f 459/2/5 458/2/5 457/2/5
f 460/2/5 458/2/5 459/2/5
f 463/2/5 462/2/5 461/2/5
f 464/2/5 462/2/5 463/2/5
f 469/2/5 466/2/5 465/2/5
f 470/2/5 466/2/5 469/2/5
f 471/1/5 468/1/5 467/1/5
f 472/1/5 468/1/5 471/1/5
f 475/2/5 474/2/5 473/2/5
f 476/2/5 474/2/5 475/2/5
f 479/1/5 478/1/5 477/1/5
f 480/1/5 478/1/5 479/1/5
f 483/3/5 482/3/5 481/3/5
f 484/3/5 482/3/5 483/3/5
f 485/1/5 484/1/5 483/1/5
f 486/1/5 484/1/5 485/1/5
f 489/1/5 488/1/5 487/1/5
f 490/1/5 488/1/5 489/1/5
f 491/3/5 490/3/5 489/3/5
f 492/3/5 490/3/5 491/3/5
f 495/3/5 494/3/5 493/3/5
f 496/3/5 494/3/5 495/3/5
f 497/1/5 496/1/5 495/1/5
f 498/1/5 496/1/5 497/1/5
f 501/3/5 500/3/5 499/3/5
f 502/3/5 500/3/5 501/3/5
f 505/3/5 504/3/5 503/3/5
f 506/3/5 504/3/5 505/3/5
f 511/1/5 508/1/5 507/1/5
f 512/1/5 508/1/5 511/1/5
f 513/1/5 510/1/5 509/1/5
f 514/1/5 510/1/5 513/1/5
f 515/3/5 514/3/5 513/3/5
f 516/3/5 514/3/5 515/3/5
f 519/3/5 518/3/5 517/3/5
f 520/3/5 518/3/5 519/3/5
f 521/1/5 520/1/5 519/1/5
f 522/1/5 520/1/5 521/1/5
f 525/1/5 524/1/5 523/1/5
f 526/1/5 524/1/5 525/1/5
f 527/3/5 526/3/5 525/3/5
f 528/3/5 526/3/5 527/3/5
f 531/3/5 530/3/5 529/3/5
f 532/3/5 530/3/5 531/3/5
f 533/1/5 532/1/5 531/1/5
f 534/1/5 532/1/5 533/1/5
f 535/3/6 536/3/6 537/3/6
f 537/3/6 536/3/6 538/3/6
f 539/3/6 540/3/6 541/3/6
f 541/3/6 540/3/6 542/3/6
f 541/1/6 542/1/6 543/1/6
f 543/1/6 542/1/6 544/1/6
f 545/3/6 546/3/6 547/3/6
f 547/3/6 546/3/6 548/3/6
f 549/1/6 550/1/6 551/1/6
f 551/1/6 550/1/6 552/1/6
f 553/3/6 554/3/6 555/3/6
f 555/3/6 554/3/6 556/3/6
f 555/1/6 556/1/6 557/1/6
f 557/1/6 556/1/6 558/1/6
f 559/3/6 560/3/6 561/3/6
f 561/3/6 560/3/6 562/3/6
f 562/3/6 560/3/6 563/3/6
f 564/1/6 565/1/6 566/1/6
f 566/1/6 565/1/6 567/1/6
f 568/3/6 569/3/6 570/3/6
f 570/3/6 569/3/6 571/3/6
f 570/1/6 571/1/6 572/1/6
f 572/1/6 571/1/6 573/1/6
f 574/3/6 575/3/6 576/3/6
f 576/3/6 575/3/6 577/3/6
f 576/1/6 577/1/6 578/1/6
f 578/1/6 577/1/6 579/1/6
f 580/1/6 581/1/6 582/1/6
f 582/1/6 581/1/6 583/1/6
f 582/3/6 583/3/6 584/3/6
f 584/3/6 583/3/6 585/3/6
f 586/3/6 587/3/6 588/3/6
f 588/3/6 587/3/6 589/3/6
f 588/1/6 589/1/6 590/1/6
f 590/1/6 589/1/6 591/1/6
f 592/1/6 593/1/6 594/1/6
f 594/1/6 593/1/6 595/1/6
f 594/3/6 595/3/6 596/3/6
f 596/3/6 595/3/6 597/3/6
f 598/3/6 599/3/6 602/3/6
f 602/3/6 599/3/6 603/3/6
f 602/1/6 603/1/6 604/1/6
f 604/1/6 603/1/6 605/1/6
f 600/2/6 601/2/6 606/2/6
f 606/2/6 601/2/6 607/2/6
f 608/2/6 609/2/6 610/2/6
f 610/2/6 609/2/6 611/2/6
f 612/2/6 613/2/6 614/2/6
f 614/2/6 613/2/6 615/2/6
f 616/2/6 617/2/6 618/2/6
f 618/2/6 617/2/6 619/2/6
f 620/2/6 621/2/6 622/2/6
f 622/2/6 621/2/6 623/2/6
f 624/2/6 625/2/6 626/2/6
f 626/2/6 625/2/6 627/2/6
f 628/2/6 629/2/6 630/2/6
f 630/2/6 629/2/6 631/2/6
f 632/3/6 633/3/6 635/3/6
f 635/3/6 633/3/6 636/3/6
f 636/3/6 633/3/6 637/3/6
f 634/2/6 635/2/6 638/2/6
f 634/2/6 638/2/6 639/2/6
f 639/2/6 638/2/6 640/2/6
f 640/3/6 641/3/6 642/3/6
f 642/3/6 641/3/6 643/3/6
f 644/2/6 645/2/6 646/2/6
f 646/2/6 645/2/6 647/2/6
f 646/1/6 647/1/6 648/1/6
f 648/1/6 647/1/6 649/1/6
f 650/2/6 651/2/6 652/2/6
f 652/2/6 651/2/6 653/2/6
f 652/1/6 653/1/6 654/1/6
f 654/1/6 653/1/6 655/1/6
f 656/1/6 657/1/6 658/1/6
f 658/1/6 657/1/6 659/1/6
